<svg xmlns="http://www.w3.org/2000/svg" viewBox="0 0 4602.3 720" role="img" aria-label="Kalvard"><g transform="translate(0 -41.5) scale(27.7)"><rect x="4" y="3" width="7" height="26" fill="#111418"/><rect x="6.5" y="9" width="2" height="12" fill="#D9A21B"/><path d="M13 16 L26 3 L30 3 L15.5 17.5 Z" fill="#111418"/><path d="M15.5 14.5 L30 29 L26 29 L13 16 Z" fill="#111418"/></g><g fill="#111418" transform="translate(1119.4 720) scale(1 -1)"><path transform="translate(0 0)" d="M68 0L68 720L167 720L167 0ZM151 374L416 720L535 720L263 374ZM431 0L149 374L263 374L555 0Z"/><path transform="translate(538.2 0)" d="M25 0L226 720L307 720L119 0ZM449 0L263 720L348 720L551 0ZM133 278L439 278L439 197L133 197Z"/><path transform="translate(1078.8 0)" d="M68 0L68 720L167 720L167 0ZM120 0L120 81L427 81L427 0Z"/><path transform="translate(1414.3 0)" d="M226 0L25 720L127 720L299 66L282 66L455 720L551 720L348 0Z"/><path transform="translate(1879.8 0)" d="M25 0L226 720L307 720L119 0ZM449 0L263 720L348 720L551 0ZM133 278L439 278L439 197L133 197Z"/><path transform="translate(2409.7 0)" d="M68 0L68 720L275 720Q342 720 390.5 694Q439 668 466 622.5Q493 577 493 516Q493 456 466 409.5Q439 363 390.5 337Q342 311 275 311L141 311L141 390L271 390Q330 390 363 424Q396 458 396 515Q396 571 363.5 605Q331 639 271 639L167 639L167 0ZM398 0L132 370L242 370L524 0Z"/><path transform="translate(2910.9 0)" d="M129 0L129 82L266 82Q332 82 377.5 115Q423 148 447 210.5Q471 273 471 364Q471 454 447.5 514.5Q424 575 378 606.5Q332 638 266 638L130 638L130 720L266 720Q359 720 428.5 678Q498 636 535 556Q572 476 572 362Q572 248 534.5 167Q497 86 428 43Q359 0 267 0ZM68 0L68 720L167 720L167 0Z"/></g></svg>